<?xml version="1.0" encoding="UTF-8"?>
<svg id="Capa_1" data-name="Capa 1" xmlns="http://www.w3.org/2000/svg" viewBox="0 0 1080 408">
  <defs>
    <style>
      .cls-1 {
        fill: #fff;
      }
    </style>
  </defs>
  <g>
    <path class="cls-1" d="M96.76,75.19c-9.34,0-16.93-7.59-16.93-16.93V21.97c0-9.34,7.6-16.93,16.93-16.93s16.93,7.6,16.93,16.93v36.29c0,9.33-7.6,16.93-16.93,16.93Z"/>
    <path class="cls-1" d="M266.09,75.19c-9.34,0-16.93-7.59-16.93-16.93V21.97c0-9.34,7.6-16.93,16.93-16.93s16.93,7.6,16.93,16.93v36.29c0,9.33-7.6,16.93-16.93,16.93Z"/>
    <path class="cls-1" d="M303.37,40.11h-5.83v18.15c0,17.34-14.1,31.44-31.45,31.44s-31.45-14.1-31.45-31.44v-18.15h-106.43v18.15c0,17.34-14.1,31.44-31.45,31.44s-31.45-14.1-31.45-31.44v-18.15h-5.83C26.63,40.11,0,66.74,0,99.61v243.87c0,32.86,26.63,59.48,59.48,59.48h243.89c32.85,0,59.48-26.62,59.48-59.48V99.61c0-32.87-26.63-59.5-59.48-59.5ZM326.57,341.7c0,12.07-9.79,21.86-21.86,21.86H58.14c-12.07,0-21.86-9.79-21.86-21.86V123.87h290.29v217.83Z"/>
    <path class="cls-1" d="M235.49,280.76v-25.44l-46.75-45.94v-26.96h18.78v-14.65h-18.78v-17.65h-14.65v17.65h-18.77v14.65h18.77v26.96l-46.74,45.94v25.44l-45.27,23.97v58.82h78.29v-22.87c0-11.61,9.42-21.03,21.05-21.03,5.82,0,11.07,2.36,14.88,6.17,3.81,3.8,6.16,9.06,6.16,14.86v22.87h78.3v-58.82l-45.27-23.97ZM191.15,278.1h-19.45v-17.04l9.72-11.19,9.72,11.19v17.04Z"/>
  </g>
  <g>
    <path class="cls-1" d="M464.06,96.25h59.95l26.73,191.31h.76l26.73-191.31h59.95v267.3h-39.71v-202.39h-.76l-30.55,202.39h-35.13l-30.55-202.39h-.76v202.39h-36.66V96.25Z"/>
    <path class="cls-1" d="M669.5,96.25h42.01v229.12h69.12v38.19h-111.12V96.25Z"/>
    <path class="cls-1" d="M834.85,96.25h56.9l43.53,267.3h-42l-7.64-53.08v.76h-47.73l-7.64,52.32h-38.95l43.53-267.3ZM880.67,274.96l-18.71-132.12h-.76l-18.33,132.12h37.8Z"/>
    <path class="cls-1" d="M955.51,96.25h61.86c20.87,0,36.53,5.6,46.97,16.8,10.44,11.21,15.66,27.63,15.66,49.26v26.35c0,21.64-5.22,38.06-15.66,49.26-10.44,11.21-26.1,16.8-46.97,16.8h-19.86v108.83h-42.01V96.25ZM1017.37,216.54c6.87,0,12.03-1.91,15.47-5.73,3.44-3.82,5.15-10.31,5.15-19.47v-31.69c0-9.16-1.72-15.66-5.15-19.48-3.44-3.82-8.59-5.73-15.47-5.73h-19.86v82.1h19.86Z"/>
  </g>
</svg>